<?xml version="1.0" encoding="iso-8859-1"?>
<!-- Generator: Adobe Illustrator 19.0.0, SVG Export Plug-In . SVG Version: 6.00 Build 0)  -->
<svg version="1.1" id="Layer_1" xmlns="http://www.w3.org/2000/svg" xmlns:xlink="http://www.w3.org/1999/xlink" x="0px" y="0px"
	 viewBox="0 0 512 512" style="enable-background:new 0 0 512 512;" xml:space="preserve">
<polygon style="fill:#367596;" points="503.83,32.681 503.83,98.043 449.362,119.83 471.149,32.681 "/>
<polygon style="fill:#5195AF;" points="471.149,32.681 471.149,119.83 305.021,119.83 326.809,32.681 "/>
<polygon style="fill:#27467A;" points="8.17,32.681 8.17,98.043 40.851,119.83 326.809,119.83 326.809,32.681 "/>
<polygon style="fill:#A0F6FA;" points="503.83,98.043 503.83,479.319 471.149,479.319 427.574,288.681 471.149,98.043 "/>
<rect x="8.17" y="98.043" style="fill:#D0FBFD;" width="462.979" height="381.277"/>
<path d="M182.264,227.811c-2.309-3.877-7.324-5.148-11.2-2.838l-95.176,56.689c-2.474,1.473-3.99,4.14-3.99,7.019
	s1.516,5.546,3.989,7.019l95.176,56.689c1.311,0.781,2.751,1.153,4.173,1.153c2.784,0,5.499-1.425,7.026-3.99
	c2.309-3.877,1.038-8.891-2.838-11.2l-83.392-49.671l83.392-49.671C183.303,236.702,184.574,231.688,182.264,227.811z"/>
<path d="M329.737,349.551c1.528,2.567,4.242,3.99,7.026,3.99c1.423,0,2.863-0.371,4.173-1.153l95.176-56.689
	c2.474-1.474,3.989-4.14,3.989-7.019s-1.516-5.546-3.989-7.019l-95.176-56.689c-3.876-2.309-8.892-1.039-11.2,2.838
	c-2.309,3.877-1.038,8.891,2.838,11.2l83.392,49.671l-83.392,49.671C328.697,340.66,327.426,345.674,329.737,349.551z"/>
<path d="M287.286,227.437l-76.139,113.379c-2.515,3.745-1.519,8.822,2.228,11.338c1.399,0.939,2.982,1.388,4.548,1.388
	c2.631,0,5.214-1.269,6.79-3.617l76.139-113.379c2.515-3.746,1.517-8.822-2.228-11.338
	C294.875,222.693,289.801,223.692,287.286,227.437z"/>
<path d="M503.83,24.511H8.17c-4.513,0-8.17,3.658-8.17,8.17v446.638c0,4.512,3.657,8.17,8.17,8.17h495.66
	c4.513,0,8.17-3.658,8.17-8.17V392.17c0-4.512-3.657-8.17-8.17-8.17s-8.17,3.658-8.17,8.17v78.979H16.34V106.213H495.66v253.277
	c0,4.512,3.657,8.17,8.17,8.17s8.17-3.658,8.17-8.17V32.681C512,28.169,508.343,24.511,503.83,24.511z M16.34,40.851h302.298v49.021
	H16.34V40.851z M334.979,89.872V40.851H495.66v49.021H334.979z"/>
<path d="M415.591,56.647c-4.805,0-8.715,3.91-8.715,8.715c0,4.805,3.91,8.715,8.715,8.715c4.805,0,8.715-3.91,8.715-8.715
	S420.397,56.647,415.591,56.647z"/>
<path d="M370.928,56.647c-4.805,0-8.715,3.91-8.715,8.715c0,4.805,3.91,8.715,8.715,8.715s8.715-3.91,8.715-8.715
	S375.733,56.647,370.928,56.647z"/>
<path d="M460.255,56.647c-4.805,0-8.715,3.91-8.715,8.715c0,4.805,3.91,8.715,8.715,8.715c4.805,0,8.715-3.91,8.715-8.715
	S465.06,56.647,460.255,56.647z"/>
<g>
</g>
<g>
</g>
<g>
</g>
<g>
</g>
<g>
</g>
<g>
</g>
<g>
</g>
<g>
</g>
<g>
</g>
<g>
</g>
<g>
</g>
<g>
</g>
<g>
</g>
<g>
</g>
<g>
</g>
</svg>
