<?xml version="1.0" encoding="iso-8859-1"?>
<!-- Generator: Adobe Illustrator 19.0.0, SVG Export Plug-In . SVG Version: 6.00 Build 0)  -->
<svg version="1.1" id="Capa_1" xmlns="http://www.w3.org/2000/svg" xmlns:xlink="http://www.w3.org/1999/xlink" x="0px" y="0px"
	 viewBox="0 0 512 512" style="enable-background:new 0 0 512 512;" xml:space="preserve">
<rect x="267" y="301.07" style="fill:#F0F0FA;" width="78.1" height="38.574"/>
<path style="fill:#FFFFFF;" d="M118,102V45.068C118,25.701,133.701,10,153.069,10h313.863C486.299,10,502,25.701,502,45.068V266
	c0,19.368-15.701,35.068-35.068,35.068H267L118,102z"/>
<g>
	<path style="fill:#78D2FA;" d="M502,241.452H267v59.616h200c19.33,0,35-15.67,35-35V241.452z"/>
	<path style="fill:#78D2FA;" d="M267,374.714h121.081l0,0c0-19.37-15.702-35.072-35.072-35.072H267V374.714z"/>
</g>
<path style="fill:#FFFFFF;" d="M235,102H42c-17.673,0-32,14.327-32,32v336c0,17.673,14.327,32,32,32h193c17.673,0,32-14.327,32-32
	V134C267,116.327,252.673,102,235,102z"/>
<path style="fill:#F5B955;" d="M232,102H45c-19.33,0-35,15.67-35,35v37h257v-37C267,117.67,251.33,102,232,102z"/>
<path style="fill:#231F20;" d="M18.141,174h244.908"/>
<path d="M466.932,0H153.068C128.218,0,108,20.218,108,45.068V92H42c-23.159,0-42,18.841-42,42v336c0,23.159,18.841,42,42,42h193
	c23.159,0,42-18.841,42-42v-85.286h111.081c5.522,0,10-4.478,10-10c0-24.151-19.096-43.922-42.98-45.019v-18.626h111.831
	C491.782,311.068,512,290.851,512,266V45.068C512,20.218,491.782,0,466.932,0z M42,112h193c12.131,0,22,9.869,22,22v30H20v-30
	C20,121.869,29.869,112,42,112z M200.919,92h-11.021V75.082c0-3.039,2.472-5.511,5.511-5.511c3.038,0,5.51,2.472,5.51,5.511V92z
	 M262.102,96.946c0,1.455-0.579,2.783-1.518,3.778c-2.895-2.23-6.083-4.095-9.502-5.518V74.611c0-3.039,2.472-5.511,5.51-5.511
	c3.039,0,5.511,2.472,5.511,5.511L262.102,96.946L262.102,96.946z M257,470c0,12.131-9.869,22-22,22H42c-12.131,0-22-9.869-22-22
	V184h237V470z M376,364.714h-99v-15.072h68.101h7.908C363.281,349.642,372.131,355.851,376,364.714z M335.101,329.642H277v-18.573
	h58.101V329.642z M492,266c0,13.822-11.246,25.068-25.068,25.068H345.101H277v-39.617h144c5.522,0,10-4.477,10-10s-4.478-10-10-10
	H277V134c0-6.288-1.398-12.252-3.885-17.613c5.542-4.718,8.987-11.736,8.987-19.441V74.611c0-14.067-11.444-25.511-25.511-25.511
	s-25.51,11.444-25.51,25.511V92h-10.162V75.082c0-14.067-11.443-25.511-25.51-25.511s-25.511,11.444-25.511,25.511V92H128V45.068
	C128,31.246,139.246,20,153.068,20h313.863C480.754,20,492,31.246,492,45.068V266z"/>
<path d="M464.33,231.45c-2.63,0-5.21,1.07-7.07,2.93s-2.93,4.44-2.93,7.07s1.069,5.21,2.93,7.07c1.86,1.86,4.44,2.93,7.07,2.93
	c2.64,0,5.22-1.07,7.069-2.93c1.87-1.86,2.931-4.44,2.931-7.07s-1.061-5.21-2.931-7.07C469.54,232.52,466.96,231.45,464.33,231.45z"
	/>
<path d="M310.029,261.26c-2.63,0-5.21,1.07-7.069,2.93c-1.86,1.86-2.931,4.44-2.931,7.07s1.07,5.21,2.931,7.07
	c1.87,1.859,4.439,2.93,7.069,2.93c2.631,0,5.211-1.07,7.07-2.93c1.87-1.86,2.93-4.44,2.93-7.07s-1.06-5.21-2.93-7.07
	C315.24,262.33,312.66,261.26,310.029,261.26z"/>
<path d="M166.43,148H224c5.522,0,10-4.477,10-10s-4.478-10-10-10h-57.57c-5.522,0-10,4.477-10,10S160.907,148,166.43,148z"/>
<path d="M79.55,148c2.63,0,5.21-1.07,7.06-2.93c1.87-1.86,2.94-4.44,2.94-7.07s-1.07-5.21-2.94-7.07c-1.85-1.86-4.43-2.93-7.06-2.93
	c-2.64,0-5.22,1.07-7.08,2.93s-2.92,4.44-2.92,7.07c0,2.64,1.06,5.21,2.92,7.07S76.91,148,79.55,148z"/>
<path d="M49.95,148c2.64,0,5.21-1.07,7.069-2.93c1.86-1.86,2.931-4.44,2.931-7.07s-1.07-5.21-2.931-7.07
	c-1.859-1.86-4.43-2.93-7.069-2.93c-2.631,0-5.21,1.07-7.07,2.93s-2.93,4.44-2.93,7.07s1.069,5.21,2.93,7.07S47.319,148,49.95,148z"
	/>
<path d="M109.14,148c2.63,0,5.21-1.07,7.07-2.93c1.859-1.86,2.93-4.44,2.93-7.07s-1.07-5.21-2.93-7.07s-4.44-2.93-7.07-2.93
	s-5.21,1.07-7.07,2.93c-1.859,1.86-2.93,4.44-2.93,7.07c0,2.64,1.07,5.21,2.93,7.07C103.93,146.93,106.51,148,109.14,148z"/>
<path d="M305.474,122.457c5.522,0,10-4.477,10-10V59.1c0-5.523-4.478-10-10-10s-10,4.477-10,10v53.357
	C295.474,117.98,299.951,122.457,305.474,122.457z"/>
<path d="M458,122.457c5.522,0,10-4.477,10-10V59.1c0-5.523-4.478-10-10-10s-10,4.477-10,10v53.357
	C448,117.98,452.478,122.457,458,122.457z"/>
<path d="M376.656,97.417V75.082c0-14.067-11.444-25.511-25.511-25.511s-25.511,11.444-25.511,25.511v22.335
	c0,14.067,11.444,25.511,25.511,25.511S376.656,111.484,376.656,97.417z M356.656,97.417c0,3.039-2.472,5.511-5.511,5.511
	s-5.511-2.472-5.511-5.511V75.082c0-3.039,2.472-5.511,5.511-5.511s5.511,2.472,5.511,5.511V97.417z"/>
<path d="M412.328,49.1c-14.066,0-25.511,11.444-25.511,25.511v22.335c0,14.067,11.444,25.511,25.511,25.511
	s25.511-11.444,25.511-25.511V74.611C437.839,60.544,426.395,49.1,412.328,49.1z M417.839,96.946c0,3.039-2.472,5.511-5.511,5.511
	s-5.511-2.472-5.511-5.511V74.611c0-3.039,2.472-5.511,5.511-5.511s5.511,2.472,5.511,5.511V96.946z"/>
<path d="M427.839,141.397c-5.522,0-10,4.477-10,10v53.356c0,5.523,4.478,10,10,10s10-4.477,10-10v-53.356
	C437.839,145.875,433.361,141.397,427.839,141.397z"/>
<path d="M468,204.754v-53.356c0-5.523-4.478-10-10-10s-10,4.477-10,10v53.356c0,5.523,4.478,10,10,10S468,210.277,468,204.754z"/>
<path d="M320.555,141.869c-14.066,0-25.511,11.444-25.511,25.511v22.335c0,14.067,11.444,25.511,25.511,25.511
	s25.511-11.444,25.511-25.511V167.38C346.065,153.313,334.621,141.869,320.555,141.869z M326.065,189.715
	c0,3.039-2.472,5.511-5.511,5.511s-5.511-2.472-5.511-5.511V167.38c0-3.039,2.472-5.511,5.511-5.511s5.511,2.472,5.511,5.511
	V189.715z"/>
<path d="M381.737,141.427c-14.066,0-25.511,11.444-25.511,25.511v22.335c0,14.067,11.444,25.511,25.511,25.511
	s25.511-11.444,25.511-25.511v-22.335C407.248,152.871,395.804,141.427,381.737,141.427z M387.248,189.273
	c0,3.039-2.472,5.511-5.511,5.511s-5.511-2.472-5.511-5.511v-22.335c0-3.039,2.472-5.511,5.511-5.511s5.511,2.472,5.511,5.511
	V189.273z"/>
<path d="M66.296,251.452h65.199c5.522,0,10-4.477,10-10s-4.478-10-10-10H66.296c-5.522,0-10,4.477-10,10
	S60.773,251.452,66.296,251.452z"/>
<path d="M165.907,251.452h49.797c5.522,0,10-4.477,10-10s-4.478-10-10-10h-49.797c-5.522,0-10,4.477-10,10
	S160.385,251.452,165.907,251.452z"/>
<path d="M215.704,327.442h-18.62c-5.522,0-10,4.478-10,10s4.478,10,10,10h18.62c5.522,0,10-4.478,10-10
	S221.227,327.442,215.704,327.442z"/>
<path d="M66.296,347.455h90.913c5.522,0,10-4.478,10-10s-4.478-10-10-10H66.296c-5.522,0-10,4.478-10,10
	S60.773,347.455,66.296,347.455z"/>
<path d="M66.296,299.45h32.6c5.522,0,10-4.478,10-10s-4.478-10-10-10h-32.6c-5.522,0-10,4.478-10,10S60.773,299.45,66.296,299.45z"
	/>
<path d="M136.921,289.45c0,5.522,4.478,10,10,10h68.783c5.522,0,10-4.478,10-10s-4.478-10-10-10h-68.783
	C141.398,279.45,136.921,283.928,136.921,289.45z"/>
<path d="M215.7,423.43c-2.631,0-5.2,1.07-7.07,2.93c-1.86,1.86-2.93,4.44-2.93,7.07s1.069,5.21,2.93,7.07
	c1.87,1.859,4.439,2.93,7.07,2.93c2.64,0,5.21-1.07,7.069-2.93c1.87-1.86,2.94-4.44,2.94-7.07s-1.07-5.21-2.94-7.07
	C220.91,424.5,218.34,423.43,215.7,423.43z"/>
<path d="M178,423.445H66.296c-5.522,0-10,4.478-10,10s4.478,10,10,10H178c5.522,0,10-4.478,10-10S183.522,423.445,178,423.445z"/>
<path d="M66.296,395.44h32.6c5.522,0,10-4.478,10-10s-4.478-10-10-10h-32.6c-5.522,0-10,4.478-10,10S60.773,395.44,66.296,395.44z"
	/>
<path d="M215.704,375.44h-68.783c-5.522,0-10,4.478-10,10s4.478,10,10,10h68.783c5.522,0,10-4.478,10-10
	S221.227,375.44,215.704,375.44z"/>
<g>
</g>
<g>
</g>
<g>
</g>
<g>
</g>
<g>
</g>
<g>
</g>
<g>
</g>
<g>
</g>
<g>
</g>
<g>
</g>
<g>
</g>
<g>
</g>
<g>
</g>
<g>
</g>
<g>
</g>
</svg>
