<?xml version="1.0" encoding="iso-8859-1"?>
<!-- Generator: Adobe Illustrator 19.0.0, SVG Export Plug-In . SVG Version: 6.00 Build 0)  -->
<svg version="1.1" id="Capa_1" xmlns="http://www.w3.org/2000/svg" xmlns:xlink="http://www.w3.org/1999/xlink" x="0px" y="0px"
	 viewBox="0 0 512 512" style="enable-background:new 0 0 512 512;" xml:space="preserve">
<g>
	<circle style="fill:#F2F2F2;" cx="330.667" cy="362.667" r="32"/>
	<path style="fill:#F2F2F2;" d="M64,330.667h202.667v64H64V330.667z"/>
	<path style="fill:#F2F2F2;" d="M192,138.667h256v64H192V138.667z"/>
</g>
<path style="fill:#95ADC0;" d="M458.667,53.333V96H149.333h-96V53.333H96h32h256h32H458.667z"/>
<g>
	<path style="fill:#D9EEF7;" d="M448,469.333v32H64v-32v-32h384V469.333z"/>
	<path style="fill:#D9EEF7;" d="M458.667,245.333V288H53.333v-42.667h96H458.667z"/>
</g>
<g>
	<path style="fill:#AAC4DA;" d="M266.667,394.667v-64H64v64H266.667z M298.667,362.667c0,17.673,14.327,32,32,32
		c17.673,0,32-14.327,32-32s-14.327-32-32-32C312.994,330.667,298.667,344.994,298.667,362.667z M448,437.333H32
		c-11.767-0.035-21.298-9.566-21.333-21.333V309.333C10.702,297.566,20.233,288.035,32,288h448
		c11.768,0.035,21.298,9.566,21.333,21.333V416c-0.035,11.768-9.566,21.298-21.333,21.333H448z"/>
	<path style="fill:#AAC4DA;" d="M480,96H32c-11.767,0.035-21.298,9.566-21.333,21.333V224c0.035,11.767,9.566,21.298,21.333,21.333
		h448c11.768-0.035,21.298-9.566,21.333-21.333V117.333C501.298,105.566,491.768,96.035,480,96z M448,202.667H192v-64h256V202.667z"
		/>
</g>
<path style="fill:#D9EEF7;" d="M416,10.667v42.667h-32H128H96V10.667H416z"/>
<g>
	<path style="fill:#4C5B66;" d="M480,256c17.673,0,32-14.327,32-32V117.333c0-17.673-14.327-32-32-32h-10.667v-32
		c0-5.891-4.776-10.667-10.667-10.667h-32v-32C426.667,4.776,421.891,0,416,0H96c-5.891,0-10.667,4.776-10.667,10.667v32h-32
		c-5.891,0-10.667,4.776-10.667,10.667v32H32c-17.673,0-32,14.327-32,32V224c0,17.673,14.327,32,32,32h10.667v21.333H32
		c-17.673,0-32,14.327-32,32V416c0,17.673,14.327,32,32,32h448c17.673,0,32-14.327,32-32V309.333c0-17.673-14.327-32-32-32h-10.667
		V256H480z M64,64h32c5.891,0,10.667-4.776,10.667-10.667v-32h298.667v32C405.333,59.224,410.109,64,416,64h32v21.333H64V64z
		 M21.333,224V117.333c0-5.891,4.776-10.667,10.667-10.667h448c5.891,0,10.667,4.776,10.667,10.667V224
		c0,5.891-4.776,10.667-10.667,10.667H32C26.109,234.667,21.333,229.891,21.333,224z M490.667,309.333V416
		c0,5.891-4.776,10.667-10.667,10.667H32c-5.891,0-10.667-4.776-10.667-10.667V309.333c0-5.891,4.776-10.667,10.667-10.667h448
		C485.891,298.667,490.667,303.442,490.667,309.333z M448,277.333H64V256h384V277.333z"/>
	<path style="fill:#4C5B66;" d="M437.333,490.667H74.667v-21.333H53.333v32C53.333,507.224,58.109,512,64,512h384
		c5.891,0,10.667-4.776,10.667-10.667v-32h-21.333V490.667z"/>
	<path style="fill:#4C5B66;" d="M128,42.667h256V64H128V42.667z"/>
	<path style="fill:#4C5B66;" d="M53.333,128h21.333v85.333H53.333V128z"/>
	<path style="fill:#4C5B66;" d="M394.667,320H416v85.333h-21.333V320z"/>
	<path style="fill:#4C5B66;" d="M96,128h21.333v42.667H96V128z"/>
	<path style="fill:#4C5B66;" d="M138.667,128H160v42.667h-21.333V128z"/>
	<path style="fill:#4C5B66;" d="M96,192h21.333v21.333H96V192z"/>
	<path style="fill:#4C5B66;" d="M437.333,330.667h21.333V352h-21.333V330.667z"/>
	<path style="fill:#4C5B66;" d="M437.333,373.333h21.333v21.333h-21.333V373.333z"/>
	<path style="fill:#4C5B66;" d="M138.667,192H160v21.333h-21.333V192z"/>
	<path style="fill:#4C5B66;" d="M448,128H192c-5.891,0-10.667,4.776-10.667,10.667v64c0,5.891,4.776,10.667,10.667,10.667h256
		c5.891,0,10.667-4.776,10.667-10.667v-64C458.667,132.776,453.891,128,448,128z M437.333,192H202.667v-42.667h234.667V192z"/>
	<path style="fill:#4C5B66;" d="M64,405.333h202.667V384h-192v-42.667h192V320H64c-5.891,0-10.667,4.776-10.667,10.667v64
		C53.333,400.558,58.109,405.333,64,405.333z"/>
	<path style="fill:#4C5B66;" d="M330.667,405.333c23.564,0,42.667-19.103,42.667-42.667S354.231,320,330.667,320
		S288,339.103,288,362.667S307.103,405.333,330.667,405.333z M330.667,341.333c11.782,0,21.333,9.551,21.333,21.333
		c0,11.782-9.551,21.333-21.333,21.333c-11.782,0-21.333-9.551-21.333-21.333C309.333,350.885,318.885,341.333,330.667,341.333z"/>
</g>
<g>
</g>
<g>
</g>
<g>
</g>
<g>
</g>
<g>
</g>
<g>
</g>
<g>
</g>
<g>
</g>
<g>
</g>
<g>
</g>
<g>
</g>
<g>
</g>
<g>
</g>
<g>
</g>
<g>
</g>
</svg>
