<?xml version="1.0" encoding="iso-8859-1"?>
<!-- Generator: Adobe Illustrator 19.0.0, SVG Export Plug-In . SVG Version: 6.00 Build 0)  -->
<svg version="1.1" id="Capa_1" xmlns="http://www.w3.org/2000/svg" xmlns:xlink="http://www.w3.org/1999/xlink" x="0px" y="0px"
	 viewBox="0 0 512 512" style="enable-background:new 0 0 512 512;" xml:space="preserve">
<path style="fill:#FFFFFF;" d="M411.897,10.127H41.954c-17.673,0-32,14.327-32,32v428c0,17.673,14.327,32,32,32H469.84
	c17.673,0,32-14.327,32-32V102.125L411.897,10.127z"/>
<path style="fill:#AAE6FF;" d="M410.012,10H42.01c-17.673,0-32,14.327-32,32v40h400.002L410.012,10L410.012,10z"/>
<path style="fill:#4BB9F5;" d="M502.01,101.998h-59.998c-17.673,0-32-14.327-32-32V10L502.01,101.998z"/>
<path style="fill:#231F20;" d="M20.901,82H406.01"/>
<rect x="135.95" y="128" style="fill:#A5DC69;" width="240" height="80"/>
<g>
	<rect x="359.95" y="294.2" style="fill:#F5B955;" width="72" height="64"/>
	<rect x="219.9" y="294.2" style="fill:#F5B955;" width="72" height="64"/>
	<rect x="79.951" y="294.2" style="fill:#F5B955;" width="72" height="64"/>
</g>
<g>
	<circle style="fill:#FF5A5A;" cx="395.84" cy="427.29" r="29"/>
	<circle style="fill:#FF5A5A;" cx="255.9" cy="427.29" r="29"/>
	<circle style="fill:#FF5A5A;" cx="115.95" cy="427.29" r="29"/>
</g>
<path d="M509.081,94.927L417.083,2.929c-2.389-2.389-5.782-3.355-9.014-2.714C407.405,0.075,406.716,0,406.01,0h-364
	c-23.159,0-42,18.841-42,42v428c0,23.159,18.841,42,42,42h427.887c23.159,0,42-18.841,42-42V103.349
	C512.313,100.3,511.325,97.171,509.081,94.927z M420.012,34.142l57.855,57.856h-35.855c-12.131,0-22-9.869-22-22V34.142z M42.01,20
	h358.002v49.998c0,0.671,0.02,1.338,0.051,2.002H20.901c-0.301,0-0.597,0.019-0.891,0.045V42C20.01,29.869,29.879,20,42.01,20z
	 M469.897,492H42.01c-12.131,0-22-9.869-22-22V91.955C20.304,91.981,20.6,92,20.901,92h19.437v68.167c0,5.523,4.478,10,10,10
	s10-4.477,10-10V92H406.01c0.08,0,0.158-0.01,0.237-0.012c7.403,11.996,20.663,20.01,35.765,20.01h49.885V470
	C491.897,482.131,482.028,492,469.897,492z"/>
<path d="M221.962,56h149.435c5.522,0,10-4.477,10-10s-4.478-10-10-10H221.962c-5.522,0-10,4.477-10,10S216.44,56,221.962,56z"/>
<path d="M107.647,56c2.63,0,5.21-1.07,7.069-2.93c1.86-1.86,2.931-4.44,2.931-7.07s-1.07-5.21-2.931-7.07
	c-1.859-1.86-4.439-2.93-7.069-2.93s-5.21,1.07-7.07,2.93s-2.93,4.44-2.93,7.07s1.069,5.21,2.93,7.07S105.017,56,107.647,56z"/>
<path d="M63.897,56c2.63,0,5.21-1.07,7.069-2.93c1.86-1.86,2.931-4.44,2.931-7.07s-1.07-5.21-2.931-7.07
	C69.107,37.07,66.527,36,63.897,36s-5.21,1.07-7.07,2.93s-2.93,4.44-2.93,7.07s1.069,5.21,2.93,7.07S61.267,56,63.897,56z"/>
<path d="M151.397,56c2.63,0,5.21-1.07,7.069-2.93c1.86-1.86,2.931-4.44,2.931-7.07s-1.07-5.21-2.931-7.07
	c-1.859-1.86-4.439-2.93-7.069-2.93s-5.21,1.07-7.07,2.93s-2.93,4.44-2.93,7.07s1.069,5.21,2.93,7.07S148.767,56,151.397,56z"/>
<path d="M260.397,138c2.63,0,5.21-1.07,7.069-2.93c1.86-1.86,2.931-4.44,2.931-7.07c0-2.63-1.07-5.21-2.931-7.07
	c-1.859-1.86-4.439-2.93-7.069-2.93s-5.21,1.07-7.07,2.93s-2.93,4.44-2.93,7.07c0,2.63,1.069,5.21,2.93,7.07
	S257.767,138,260.397,138z"/>
<path d="M431.951,284.201h-26V248c0-5.523-4.478-10-10-10h-130v-20h110c5.522,0,10-4.477,10-10v-80c0-5.523-4.478-10-10-10h-73.05
	c-5.522,0-10,4.477-10,10c0,5.523,4.478,10,10,10h63.05v60H256.202c-0.084-0.002-0.167-0.013-0.251-0.013
	c-0.085,0-0.167,0.011-0.251,0.013H145.951v-60h63.88c5.522,0,10-4.477,10-10s-4.478-10-10-10h-73.88c-5.522,0-10,4.477-10,10v80
	c0,5.523,4.478,10,10,10h110v20h-130c-5.522,0-10,4.477-10,10v36.201h-26c-5.522,0-10,4.478-10,10v64c0,5.522,4.478,10,10,10h26
	v21.391c-16.674,4.427-29,19.646-29,37.695c0,21.505,17.495,39,39,39s39-17.495,39-39c0-18.049-12.326-33.267-29-37.695v-21.391h26
	c5.522,0,10-4.478,10-10v-64c0-5.522-4.478-10-10-10h-26V258h120v26.201h-26.054c-5.522,0-10,4.478-10,10v64c0,5.522,4.478,10,10,10
	h26v21.391c-16.674,4.427-29,19.646-29,37.695c0,21.505,17.495,39,39,39s39-17.495,39-39c0-18.049-12.326-33.267-29-37.695v-21.391
	h26c5.522,0,10-4.478,10-10v-64c0-5.522-4.478-10-10-10h-25.946V258h120v26.201h-26c-5.522,0-10,4.478-10,10v64
	c0,5.522,4.478,10,10,10h25.893v21.391c-16.674,4.427-29,19.646-29,37.695c0,21.505,17.495,39,39,39s39-17.495,39-39
	c0-18.049-12.326-33.267-29-37.695v-21.391h26.107c5.522,0,10-4.478,10-10v-64C441.951,288.679,437.473,284.201,431.951,284.201z
	 M134.951,427.287c0,10.477-8.523,19-19,19s-19-8.523-19-19s8.523-19,19-19S134.951,416.811,134.951,427.287z M141.951,348.201h-52
	v-44h52V348.201z M274.897,427.287c0,10.477-8.523,19-19,19c-10.477,0-19-8.523-19-19s8.523-19,19-19
	C266.373,408.287,274.897,416.811,274.897,427.287z M281.897,348.201h-52v-44h52V348.201z M414.843,427.287c0,10.477-8.523,19-19,19
	s-19-8.523-19-19s8.523-19,19-19S414.843,416.811,414.843,427.287z M421.951,348.201h-52v-44h52V348.201z"/>
<path d="M50.347,187.29c-2.631,0-5.21,1.07-7.07,2.93s-2.93,4.44-2.93,7.07s1.069,5.21,2.93,7.07s4.439,2.93,7.07,2.93
	c2.64,0,5.21-1.07,7.069-2.93c1.87-1.86,2.931-4.44,2.931-7.07s-1.061-5.21-2.931-7.07C55.557,188.36,52.987,187.29,50.347,187.29z"
	/>
<g>
</g>
<g>
</g>
<g>
</g>
<g>
</g>
<g>
</g>
<g>
</g>
<g>
</g>
<g>
</g>
<g>
</g>
<g>
</g>
<g>
</g>
<g>
</g>
<g>
</g>
<g>
</g>
<g>
</g>
</svg>
