<?xml version="1.0" encoding="iso-8859-1"?>
<!-- Generator: Adobe Illustrator 19.0.0, SVG Export Plug-In . SVG Version: 6.00 Build 0)  -->
<svg version="1.1" id="Capa_1" xmlns="http://www.w3.org/2000/svg" xmlns:xlink="http://www.w3.org/1999/xlink" x="0px" y="0px"
	 viewBox="0 0 512.023 512.023" style="enable-background:new 0 0 512.023 512.023;" xml:space="preserve">
<path style="fill:#69F0F7;" d="M426.678,182.103c46.717,6.213,79.552,49.12,73.34,95.838c-5.61,42.188-41.448,73.792-84.006,74.082
	h-320c-47.127-0.322-85.071-38.786-84.749-85.914c0.29-42.558,31.895-78.396,74.082-84.006v-0.747
	c0-47.128,38.205-85.333,85.333-85.333h10.667c0-47.128,38.205-85.333,85.333-85.333s85.333,38.205,85.333,85.333v0.747
	c42.637,5.372,74.628,41.612,74.667,84.587V182.103z"/>
<g>
	<path style="fill:#D9EEF7;" d="M501.345,384.023V490.69c0,5.891-4.776,10.667-10.667,10.667H384.012
		c-5.891,0-10.667-4.776-10.667-10.667v-128c0-5.891,4.776-10.667,10.667-10.667h85.333L501.345,384.023z"/>
	<path style="fill:#D9EEF7;" d="M320.012,384.023V490.69c0,5.891-4.776,10.667-10.667,10.667H202.678
		c-5.891,0-10.667-4.776-10.667-10.667v-128c0-5.891,4.776-10.667,10.667-10.667h85.333L320.012,384.023z"/>
	<path style="fill:#D9EEF7;" d="M138.678,384.023V490.69c0,5.891-4.776,10.667-10.667,10.667H21.345
		c-5.891,0-10.667-4.776-10.667-10.667v-128c0-5.891,4.776-10.667,10.667-10.667h85.333L138.678,384.023z"/>
</g>
<circle style="fill:#F2F2F2;" cx="266.678" cy="160.023" r="32"/>
<g>
	<path style="fill:#4C5B66;" d="M295.553,344.482c-2-2.001-4.713-3.125-7.541-3.125h-85.333c-11.782,0-21.333,9.551-21.333,21.333
		v128c0,11.782,9.551,21.333,21.333,21.333h106.667c11.782,0,21.333-9.551,21.333-21.333V384.023
		c-0.001-2.829-1.125-5.541-3.125-7.541L295.553,344.482z M202.678,490.69v-128h74.667v21.333c0,5.891,4.776,10.667,10.667,10.667
		h21.333v96H202.678z"/>
	<path style="fill:#4C5B66;" d="M476.886,344.482c-2-2.001-4.713-3.125-7.541-3.125h-85.333c-11.782,0-21.333,9.551-21.333,21.333
		v128c0,11.782,9.551,21.333,21.333,21.333h106.667c11.782,0,21.333-9.551,21.333-21.333V384.023
		c-0.001-2.829-1.125-5.541-3.125-7.541L476.886,344.482z M384.012,490.69v-128h74.667v21.333c0,5.891,4.776,10.667,10.667,10.667
		h21.333v96H384.012z"/>
	<path style="fill:#4C5B66;" d="M114.22,344.482c-2-2.001-4.713-3.125-7.541-3.125H21.345c-11.782,0-21.333,9.551-21.333,21.333v128
		c0,11.782,9.551,21.333,21.333,21.333h106.667c11.782,0,21.333-9.551,21.333-21.333V384.023c-0.001-2.829-1.125-5.541-3.125-7.541
		L114.22,344.482z M21.345,490.69v-128h74.667v21.333c0,5.891,4.776,10.667,10.667,10.667h21.333v96H21.345z"/>
	<path style="fill:#4C5B66;" d="M436.993,173.069c-3.677-41.658-33.866-76.159-74.667-85.333
		c-4.568-52.822-51.091-91.94-103.913-87.373c-45.591,3.942-82.061,39.516-87.137,84.994h-0.597
		c-49.784,0.062-91.284,38.12-95.648,87.712c-43.81,9.845-74.96,48.719-75.019,93.621v10.667h21.333V266.69
		c0.035-37.614,28.044-69.33,65.365-74.016c5.436-1.015,9.359-5.787,9.301-11.317c0.047-41.218,33.449-74.62,74.667-74.667h10.667
		c5.891,0,10.667-4.776,10.667-10.667c0.077-41.237,33.568-74.605,74.805-74.528s74.605,33.568,74.528,74.805
		c-0.237,5.549,3.823,10.351,9.333,11.04c37.414,4.714,65.441,36.584,65.333,74.293c-0.237,5.549,3.823,10.351,9.333,11.04
		c37.309,4.7,65.301,36.412,65.333,74.016v10.667h21.333V266.69C511.953,221.788,480.803,182.914,436.993,173.069z"/>
	<path style="fill:#4C5B66;" d="M266.678,64.023V42.69c-29.441,0.035-53.298,23.893-53.333,53.333h21.333
		C234.678,78.35,249.005,64.023,266.678,64.023z"/>
	<path style="fill:#4C5B66;" d="M42.678,405.357h42.667v21.333H42.678V405.357z"/>
	<path style="fill:#4C5B66;" d="M42.678,448.023h64v21.333h-64V448.023z"/>
	<path style="fill:#4C5B66;" d="M224.012,405.357h42.667v21.333h-42.667V405.357z"/>
	<path style="fill:#4C5B66;" d="M224.012,448.023h64v21.333h-64V448.023z"/>
	<path style="fill:#4C5B66;" d="M405.345,405.357h42.667v21.333h-42.667V405.357z"/>
	<path style="fill:#4C5B66;" d="M405.345,448.023h64v21.333h-64V448.023z"/>
	<path style="fill:#4C5B66;" d="M74.678,298.69v21.333h21.333V298.69c-0.527-5.365,3.395-10.14,8.76-10.667
		c0.634-0.062,1.273-0.062,1.907,0h138.667c17.171,0.502,31.498-13.01,32-30.181c0.018-0.606,0.018-1.213,0-1.819v-32h-21.333
		v31.872c0.578,5.377-3.312,10.205-8.689,10.783c-0.657,0.071-1.32,0.075-1.978,0.012H106.678c-17.171-0.502-31.498,13.01-32,30.181
		C74.661,297.478,74.661,298.084,74.678,298.69L74.678,298.69z"/>
	<path style="fill:#4C5B66;" d="M437.345,320.023V298.69c0.502-17.171-13.01-31.498-30.181-32c-0.606-0.018-1.213-0.018-1.819,0
		H288.012v21.333h117.205c5.377-0.578,10.205,3.312,10.783,8.689c0.071,0.657,0.075,1.32,0.012,1.978v21.333H437.345z"/>
	<path style="fill:#4C5B66;" d="M181.345,170.69h44.181c5.785,22.728,28.898,36.463,51.626,30.678
		c15.073-3.836,26.842-15.606,30.678-30.678h44.181v-21.333H307.83c-5.785-22.728-28.898-36.463-51.626-30.678
		c-15.072,3.836-26.842,15.606-30.678,30.678h-44.181V170.69z M266.678,138.69c11.782,0,21.333,9.551,21.333,21.333
		c0,11.782-9.551,21.333-21.333,21.333c-11.782,0-21.333-9.551-21.333-21.333C245.345,148.241,254.896,138.69,266.678,138.69z"/>
</g>
<g>
</g>
<g>
</g>
<g>
</g>
<g>
</g>
<g>
</g>
<g>
</g>
<g>
</g>
<g>
</g>
<g>
</g>
<g>
</g>
<g>
</g>
<g>
</g>
<g>
</g>
<g>
</g>
<g>
</g>
</svg>
