<?xml version="1.0" encoding="iso-8859-1"?>
<!-- Generator: Adobe Illustrator 19.0.0, SVG Export Plug-In . SVG Version: 6.00 Build 0)  -->
<svg version="1.1" id="Layer_1" xmlns="http://www.w3.org/2000/svg" xmlns:xlink="http://www.w3.org/1999/xlink" x="0px" y="0px"
	 viewBox="0 0 512.001 512.001" style="enable-background:new 0 0 512.001 512.001;" xml:space="preserve">
<polygon style="fill:#88ACB5;" points="256.211,303.867 256.211,347.441 214.402,380.122 172.592,347.441 172.592,303.867 "/>
<g>
	<rect x="172.589" y="347.441" style="fill:#A7CBCF;" width="83.619" height="43.901"/>
	<path style="fill:#A7CBCF;" d="M411.66,8.17h-32.681v283.898l42.06-21.787V17.55C421.039,12.397,416.813,8.17,411.66,8.17z"/>
</g>
<path style="fill:#C7E7EB;" d="M378.979,8.17H17.551c-5.153,0-9.379,4.227-9.379,9.379v252.732l32.681,21.787h347.506V17.55
	C388.359,12.397,384.132,8.17,378.979,8.17z"/>
<path style="fill:#367596;" d="M388.359,270.282l-9.379,55.372h32.681c5.153,0,9.379-4.216,9.379-9.379v-45.993L388.359,270.282
	L388.359,270.282z"/>
<path style="fill:#5195AF;" d="M8.171,270.282v45.993c0,5.164,4.227,9.379,9.379,9.379h361.428c5.153,0,9.379-4.216,9.379-9.379
	v-45.993L8.171,270.282L8.171,270.282z"/>
<g>
	<path style="fill:#111449;" d="M494.451,194.026h-32.681v54.468l42.06-21.787v-23.291
		C503.831,198.253,499.604,194.026,494.451,194.026z"/>
	<path style="fill:#111449;" d="M461.771,416.681v87.149h32.681c5.153,0,9.379-4.227,9.379-9.379v-55.982L461.771,416.681z"/>
</g>
<g>
	<path style="fill:#27467A;" d="M461.771,194.026H350.895h-32.681c-5.153,0-9.379,4.227-9.379,9.39v23.291l32.681,21.787H471.15
		v-45.078C471.15,198.253,466.923,194.026,461.771,194.026z"/>
	<path style="fill:#27467A;" d="M341.516,416.681l-32.681,21.787v55.982c0,5.153,4.227,9.379,9.379,9.379h32.681h110.875
		c5.153,0,9.379-4.227,9.379-9.379v-77.77H341.516z"/>
</g>
<path style="fill:#111449;" d="M422.673,479.319h-32.681c-4.513,0-8.17-3.658-8.17-8.17c0-4.512,3.657-8.17,8.17-8.17h32.681
	c4.513,0,8.17,3.658,8.17,8.17C430.844,475.661,427.187,479.319,422.673,479.319z"/>
<polygon style="fill:#FFEAB5;" points="471.15,226.707 308.835,226.707 308.835,438.468 471.15,438.468 482.044,332.588 "/>
<rect x="471.15" y="226.707" style="fill:#FFCD60;" width="32.681" height="211.761"/>
<path d="M276.154,333.828c4.513,0,8.17-3.658,8.17-8.17c0-4.512-3.657-8.17-8.17-8.17h-258.6c-0.646,0-1.212-0.566-1.212-1.214
	V17.554c0-0.646,0.568-1.214,1.212-1.214h394.102c0.646,0,1.212,0.568,1.212,1.214v143.797c0,4.512,3.657,8.17,8.17,8.17
	c4.513,0,8.17-3.658,8.17-8.17V17.554C429.21,7.874,421.336,0,411.657,0H17.554C7.875,0,0.001,7.874,0.001,17.554v298.72
	c0,9.679,7.874,17.554,17.553,17.554h147.274v49.344h-62.823c-4.513,0-8.17,3.658-8.17,8.17c0,4.512,3.657,8.17,8.17,8.17h174.15
	c4.513,0,8.17-3.658,8.17-8.17c0-4.512-3.657-8.17-8.17-8.17h-11.773v-49.344H276.154z M248.041,383.171h-66.873v-49.344h66.873
	V383.171z"/>
<path d="M276.154,262.116H40.852c-4.513,0-8.17,3.658-8.17,8.17c0,4.512,3.657,8.17,8.17,8.17h235.302c4.513,0,8.17-3.658,8.17-8.17
	C284.324,265.774,280.668,262.116,276.154,262.116z"/>
<path d="M494.448,185.86h-176.23c-9.679,0-17.553,7.875-17.553,17.554v291.033c0,9.679,7.874,17.554,17.553,17.554h176.229
	c9.679,0,17.553-7.874,17.553-17.554V203.413C512.001,193.734,504.127,185.86,494.448,185.86z M317.005,234.882h178.655v195.416
	H317.005V234.882z M318.218,202.201h176.229c0.646,0,1.212,0.566,1.212,1.214v15.127H317.005v-15.127
	C317.005,202.767,317.573,202.201,318.218,202.201z M494.448,495.66h-176.23c-0.646,0-1.212-0.568-1.212-1.214v-47.808h178.655
	v47.808C495.661,495.092,495.093,495.66,494.448,495.66z"/>
<path d="M422.673,462.979h-32.681c-4.513,0-8.17,3.658-8.17,8.17c0,4.512,3.657,8.17,8.17,8.17h32.681c4.513,0,8.17-3.658,8.17-8.17
	C430.844,466.637,427.187,462.979,422.673,462.979z"/>
<g>
</g>
<g>
</g>
<g>
</g>
<g>
</g>
<g>
</g>
<g>
</g>
<g>
</g>
<g>
</g>
<g>
</g>
<g>
</g>
<g>
</g>
<g>
</g>
<g>
</g>
<g>
</g>
<g>
</g>
</svg>
