<?xml version="1.0" encoding="iso-8859-1"?>
<!-- Generator: Adobe Illustrator 19.0.0, SVG Export Plug-In . SVG Version: 6.00 Build 0)  -->
<svg version="1.1" id="Capa_1" xmlns="http://www.w3.org/2000/svg" xmlns:xlink="http://www.w3.org/1999/xlink" x="0px" y="0px"
	 viewBox="0 0 512 512" style="enable-background:new 0 0 512 512;" xml:space="preserve">
<path style="fill:#FFFFFF;" d="M76.153,384H42.007c-17.673,0-32-14.327-32-32V42c0-17.673,14.327-32,32-32h388
	c17.673,0,32,14.327,32,32v310c0,17.673-14.327,32-32,32h-42.415H76.153z"/>
<path style="fill:#78D2FA;" d="M430.007,10h-388c-17.673,0-32,14.327-32,32v40h452V42C462.007,24.327,447.68,10,430.007,10z"/>
<path style="fill:#231F20;" d="M20.116,82h436.891"/>
<path style="fill:#C8F5FF;" d="M289.467,192.241h-38.482c-11.046,0-20,8.954-20,20V482c0,11.046,8.954,20,20,20h231.008
	c11.046,0,20-8.954,20-20V212.241c0-11.046-8.954-20-20-20H439.81"/>
<g>
	<path style="fill:#FF5A5A;" d="M291.245,214.937v-14.563c0-13.866,11.24-25.106,25.106-25.106h28.642
		c0-11.717,9.499-21.216,21.216-21.216s21.216,9.499,21.216,21.216h28.642c13.866,0,25.106,11.24,25.106,25.106v14.563
		c0,3.884-3.148,7.032-7.032,7.032H298.277C294.394,221.969,291.245,218.821,291.245,214.937z"/>
	<path style="fill:#FF5A5A;" d="M179.666,225.716l21.365,3.985c17.365,3.239,29.955,18.394,29.955,36.058V320h-168v-54.241
		c0-17.664,12.59-32.82,29.955-36.058l21.284-3.97"/>
</g>
<path style="fill:#FFCDAC;" d="M146.986,135.288L146.986,135.288c-22.091,0-40,17.909-40,40v26.029c0,22.091,17.909,40,40,40l0,0
	c22.091,0,40-17.909,40-40v-26.029C186.986,153.196,169.077,135.288,146.986,135.288z"/>
<path d="M204.83,56h207.566c5.523,0,10-4.478,10-10s-4.477-10-10-10H204.83c-5.523,0-10,4.478-10,10S199.307,56,204.83,56z"/>
<path d="M96.366,56c2.63,0,5.21-1.07,7.07-2.931c1.86-1.859,2.93-4.439,2.93-7.069s-1.07-5.21-2.93-7.07S98.996,36,96.366,36
	c-2.64,0-5.21,1.069-7.07,2.93c-1.86,1.86-2.93,4.44-2.93,7.07s1.07,5.21,2.93,7.069C91.156,54.93,93.726,56,96.366,56z"/>
<path d="M59.616,56c2.63,0,5.21-1.07,7.07-2.931c1.86-1.859,2.93-4.439,2.93-7.069s-1.07-5.21-2.93-7.07S62.246,36,59.616,36
	s-5.21,1.069-7.07,2.93c-1.86,1.86-2.93,4.44-2.93,7.07s1.07,5.21,2.93,7.069C54.406,54.93,56.987,56,59.616,56z"/>
<path d="M133.116,56c2.63,0,5.21-1.07,7.07-2.931c1.86-1.859,2.93-4.439,2.93-7.069s-1.07-5.21-2.93-7.07
	c-1.86-1.86-4.44-2.93-7.07-2.93c-2.64,0-5.21,1.069-7.08,2.93c-1.86,1.86-2.92,4.44-2.92,7.07s1.06,5.21,2.92,7.069
	C127.906,54.93,130.476,56,133.116,56z"/>
<path d="M481.993,182.241h-35.877c-6.157-10.165-17.322-16.973-30.049-16.973h-20.285c-4.177-12.324-15.856-21.217-29.573-21.217
	s-25.396,8.893-29.574,21.217H316.35c-12.727,0-23.892,6.808-30.049,16.973h-35.317c-16.542,0-30,13.458-30,30v15.224
	c-5.302-3.699-11.431-6.346-18.121-7.594l-8.828-1.647c1.905-5.284,2.949-10.976,2.949-16.908v-26.029c0-27.57-22.43-50-50-50
	s-50,22.43-50,50v26.029c0,5.932,1.044,11.624,2.949,16.908l-8.827,1.646c-22.089,4.119-38.122,23.418-38.122,45.888V320
	c0,5.522,4.477,10,10,10h44c5.523,0,10-4.478,10-10s-4.477-10-10-10h-34v-44.241c0-12.843,9.163-23.873,21.789-26.228l16.653-3.106
	c9.071,9.186,21.659,14.891,35.558,14.891c13.899,0,26.487-5.705,35.559-14.892l16.653,3.106
	c12.625,2.354,21.788,13.385,21.788,26.228V310h-34c-5.523,0-10,4.478-10,10s4.477,10,10,10h34v44H42.007c-12.131,0-22-9.869-22-22
	V91.995c0.037,0,0.072,0.005,0.109,0.005h431.891v62.052c0,5.522,4.477,10,10,10s10-4.478,10-10V42c0-23.159-18.841-42-42-42h-388
	c-23.159,0-42,18.841-42,42v310c0,23.159,18.841,42,42,42h178.979v88c0,16.542,13.458,30,30,30h231.008c16.542,0,30-13.458,30-30
	V212.241C511.993,195.699,498.535,182.241,481.993,182.241z M146.986,231.316c-16.542,0-30-13.458-30-30v-26.029
	c0-16.542,13.458-30,30-30s30,13.458,30,30v26.029C176.986,217.858,163.528,231.316,146.986,231.316z M42.007,20h388
	c12.131,0,22,9.869,22,22v30H20.116c-0.037,0-0.073,0.005-0.109,0.005V42C20.007,29.869,29.876,20,42.007,20z M301.245,200.374
	c0-8.329,6.776-15.105,15.106-15.105h28.642c5.523,0,10-4.478,10-10c0-6.185,5.032-11.217,11.216-11.217s11.216,5.032,11.216,11.217
	c0,5.522,4.477,10,10,10h28.642c8.33,0,15.106,6.776,15.106,15.105v11.595H301.245V200.374z M491.993,482c0,5.514-4.486,10-10,10
	H250.986c-5.514,0-10-4.486-10-10V320v-54.241v-53.518c0-5.514,4.486-10,10-10h30.26v12.696c0,9.391,7.641,17.031,17.032,17.031
	h135.865c9.391,0,17.032-7.641,17.032-17.031v-12.696h30.82c5.514,0,10,4.486,10,10V482H491.993z"/>
<path d="M154.056,327.069c1.86-1.859,2.93-4.439,2.93-7.069s-1.07-5.21-2.93-7.07s-4.44-2.93-7.07-2.93s-5.21,1.069-7.07,2.93
	c-1.86,1.86-2.93,4.44-2.93,7.07s1.07,5.21,2.93,7.069c1.86,1.86,4.44,2.931,7.07,2.931S152.197,328.93,154.056,327.069z"/>
<path d="M457.007,276.662H404.84c-5.523,0-10,4.478-10,10s4.477,10,10,10h52.167c5.523,0,10-4.478,10-10
	S462.53,276.662,457.007,276.662z"/>
<path d="M457.007,316.662h-87c-5.523,0-10,4.478-10,10s4.477,10,10,10h87c5.523,0,10-4.478,10-10S462.53,316.662,457.007,316.662z"
	/>
<path d="M370.007,296.66c2.63,0,5.21-1.07,7.07-2.931c1.86-1.859,2.93-4.439,2.93-7.069s-1.07-5.21-2.93-7.07s-4.44-2.93-7.07-2.93
	s-5.21,1.069-7.07,2.93c-1.86,1.86-2.93,4.44-2.93,7.07s1.07,5.21,2.93,7.069C364.797,295.59,367.376,296.66,370.007,296.66z"/>
<path d="M322.352,391.335l-23.267,23.268l-13.788-13.788c-3.905-3.904-10.237-3.904-14.143,0c-3.905,3.905-3.905,10.237,0,14.143
	l20.859,20.859c1.875,1.875,4.419,2.929,7.071,2.929s5.196-1.054,7.071-2.929l30.338-30.339c3.905-3.905,3.905-10.237,0-14.143
	C332.589,387.431,326.257,387.431,322.352,391.335z"/>
<path d="M322.352,289.252l-23.267,23.268l-13.788-13.789c-3.904-3.903-10.237-3.904-14.142,0c-3.905,3.905-3.906,10.237,0,14.143
	l20.859,20.86c1.875,1.875,4.419,2.929,7.071,2.929s5.196-1.054,7.071-2.929l30.338-30.339c3.905-3.905,3.905-10.237,0-14.143
	C332.589,285.348,326.257,285.348,322.352,289.252z"/>
<path d="M370.007,398.745h52.167c5.523,0,10-4.478,10-10s-4.477-10-10-10h-52.167c-5.523,0-10,4.478-10,10
	S364.484,398.745,370.007,398.745z"/>
<path d="M457.007,418.745h-87c-5.523,0-10,4.478-10,10s4.477,10,10,10h87c5.523,0,10-4.478,10-10S462.53,418.745,457.007,418.745z"
	/>
<path d="M457.007,378.74c-2.63,0-5.21,1.069-7.07,2.93c-1.86,1.86-2.93,4.439-2.93,7.08c0,2.63,1.07,5.21,2.93,7.069
	c1.86,1.86,4.44,2.931,7.07,2.931s5.21-1.07,7.07-2.931c1.86-1.869,2.93-4.439,2.93-7.069c0-2.641-1.07-5.21-2.93-7.08
	C462.217,379.81,459.635,378.74,457.007,378.74z"/>
<g>
</g>
<g>
</g>
<g>
</g>
<g>
</g>
<g>
</g>
<g>
</g>
<g>
</g>
<g>
</g>
<g>
</g>
<g>
</g>
<g>
</g>
<g>
</g>
<g>
</g>
<g>
</g>
<g>
</g>
</svg>
