<?xml version="1.0" encoding="iso-8859-1"?>
<!-- Generator: Adobe Illustrator 19.0.0, SVG Export Plug-In . SVG Version: 6.00 Build 0)  -->
<svg version="1.1" id="Capa_1" xmlns="http://www.w3.org/2000/svg" xmlns:xlink="http://www.w3.org/1999/xlink" x="0px" y="0px"
	 viewBox="0 0 512 512" style="enable-background:new 0 0 512 512;" xml:space="preserve">
<path style="fill:#AAC4DA;" d="M448,96h-64c-11.767-0.035-21.298-9.566-21.333-21.333v-64L448,96z"/>
<path style="fill:#D9EEF7;" d="M448,96v384c-0.035,11.768-9.566,21.298-21.333,21.333H85.333C73.566,501.298,64.035,491.768,64,480
	V32c0.035-11.767,9.566-21.298,21.333-21.333h277.333v64C362.702,86.434,372.233,95.965,384,96H448z"/>
<path style="fill:#F2F2F2;" d="M320,192v106.667c0,5.891-4.776,10.667-10.667,10.667H202.667c-5.891,0-10.667-4.776-10.667-10.667
	v-128c0-5.891,4.776-10.667,10.667-10.667H288L320,192z"/>
<g>
	<path style="fill:#4C5B66;" d="M455.541,88.459L370.208,3.125c-2-2.001-4.713-3.125-7.541-3.125H85.333c-17.673,0-32,14.327-32,32
		l0,0v448c0,17.673,14.327,32,32,32h341.333c17.673,0,32-14.327,32-32V96C458.666,93.171,457.542,90.459,455.541,88.459z
		 M437.333,480c0,5.891-4.776,10.667-10.667,10.667H85.333c-5.891,0-10.667-4.776-10.667-10.667V32
		c0-5.891,4.776-10.667,10.667-10.667H352v53.333c0,17.673,14.327,32,32,32h21.333V85.333H384c-5.891,0-10.667-4.776-10.667-10.667
		V36.416l64,64V480z"/>
	<path style="fill:#4C5B66;" d="M117.333,64H224v21.333H117.333V64z"/>
	<path style="fill:#4C5B66;" d="M117.333,106.667h21.333V128h-21.333V106.667z"/>
	<path style="fill:#4C5B66;" d="M160,106.667h21.333V128H160V106.667z"/>
	<path style="fill:#4C5B66;" d="M181.333,170.667v128c0,11.782,9.551,21.333,21.333,21.333V170.667h74.667V192
		c0,5.891,4.776,10.667,10.667,10.667h21.333v96V320c11.782,0,21.333-9.551,21.333-21.333V192c-0.001-2.829-1.125-5.541-3.125-7.541
		l-32-32c-2-2.001-4.713-3.125-7.541-3.125h-85.333C190.885,149.333,181.333,158.885,181.333,170.667L181.333,170.667z"/>
	<path style="fill:#4C5B66;" d="M266.667,407.296V384h-21.333v23.296c-16.662,5.891-25.394,24.174-19.503,40.837
		c5.891,16.662,24.174,25.394,40.837,19.503c16.662-5.891,25.394-24.174,19.503-40.837
		C282.948,417.686,275.78,410.518,266.667,407.296z M256,448c-5.891,0-10.667-4.776-10.667-10.667s4.776-10.667,10.667-10.667
		c5.891,0,10.667,4.776,10.667,10.667S261.891,448,256,448z"/>
	<path style="fill:#4C5B66;" d="M160,407.296v-33.963h85.333c11.538,0.244,21.089-8.911,21.333-20.449
		c0.006-0.295,0.006-0.589,0-0.884v-74.667h-21.333V352H160c-11.538-0.244-21.089,8.911-21.333,20.449
		c-0.006,0.295-0.006,0.589,0,0.884v33.963c-16.662,5.891-25.394,24.174-19.503,40.837c5.891,16.662,24.174,25.394,40.837,19.503
		c16.662-5.891,25.394-24.174,19.503-40.837C176.281,417.686,169.113,410.518,160,407.296z M149.333,448
		c-5.891,0-10.667-4.776-10.667-10.667s4.776-10.667,10.667-10.667c5.891,0,10.667,4.776,10.667,10.667S155.224,448,149.333,448z"/>
	<path style="fill:#4C5B66;" d="M373.333,407.296v-33.963c0.244-11.538-8.911-21.089-20.449-21.333
		c-0.295-0.006-0.589-0.006-0.884,0h-64v21.333h64v33.963c-16.662,5.891-25.394,24.174-19.503,40.837
		c5.891,16.662,24.174,25.394,40.837,19.503c16.662-5.891,25.394-24.174,19.503-40.837
		C389.615,417.686,382.446,410.518,373.333,407.296z M362.667,448c-5.891,0-10.667-4.776-10.667-10.667s4.776-10.667,10.667-10.667
		c5.891,0,10.667,4.776,10.667,10.667S368.558,448,362.667,448z"/>
</g>
<g>
</g>
<g>
</g>
<g>
</g>
<g>
</g>
<g>
</g>
<g>
</g>
<g>
</g>
<g>
</g>
<g>
</g>
<g>
</g>
<g>
</g>
<g>
</g>
<g>
</g>
<g>
</g>
<g>
</g>
</svg>
