<?xml version="1.0" encoding="iso-8859-1"?>
<!-- Generator: Adobe Illustrator 19.0.0, SVG Export Plug-In . SVG Version: 6.00 Build 0)  -->
<svg version="1.1" id="Capa_1" xmlns="http://www.w3.org/2000/svg" xmlns:xlink="http://www.w3.org/1999/xlink" x="0px" y="0px"
	 viewBox="0 0 512 512" style="enable-background:new 0 0 512 512;" xml:space="preserve">
<path style="fill:#FFFFFF;" d="M117.183,383.665H83.126c-17.627,0-31.916-14.289-31.916-31.916V42.56
	c0-17.627,14.289-31.916,31.916-31.916H470.11c17.627,0,31.916,14.289,31.916,31.916v309.188c0,17.627-14.289,31.916-31.916,31.916
	h-42.303H117.183z"/>
<polygon style="fill:#FF5A5A;" points="59.363,277.757 78.911,289.508 108.861,277.096 114.378,254.956 151.971,254.956 
	157.487,277.096 187.437,289.508 206.985,277.757 233.573,304.344 221.822,323.893 234.234,353.843 256.374,359.359 
	256.374,396.952 234.234,402.467 221.822,432.419 233.573,451.967 206.985,478.555 187.437,466.804 157.487,479.216 
	151.971,501.356 114.378,501.356 108.861,479.216 78.911,466.804 59.363,478.555 32.775,451.967 44.526,432.419 32.114,402.467 
	9.974,396.952 9.974,359.359 32.114,353.843 44.526,323.893 32.775,304.344 "/>
<circle style="fill:#FFFFFF;" cx="133.17" cy="378.157" r="55.026"/>
<path style="fill:#F5C86E;" d="M294.144,350.058l17.151-5.542c4.279,3.465,9.106,6.278,14.332,8.287l3.776,17.627h30.548
	l3.776-17.627c5.226-2.01,10.054-4.822,14.332-8.287l17.151,5.542l15.295-26.446l-13.386-12.091
	c0.423-2.698,0.644-5.463,0.644-8.278c0-2.817-0.221-5.581-0.644-8.278l13.386-12.091l-15.297-26.447l-17.151,5.542
	c-4.279-3.465-9.106-6.278-14.332-8.287l-3.776-17.627h-30.548l-3.776,17.627c-5.226,2.01-10.054,4.822-14.332,8.287l-17.151-5.542
	l-15.295,26.446l13.386,12.091c-0.423,2.698-0.644,5.463-0.644,8.278c0,2.817,0.221,5.581,0.644,8.278l-13.386,12.091
	L294.144,350.058z"/>
<path style="fill:#78D2FA;" d="M470.11,10.644H83.126c-17.627,0-31.916,14.289-31.916,31.916v39.895h450.817V42.56
	C502.026,24.934,487.737,10.644,470.11,10.644z"/>
<path style="fill:#231F20;" d="M61.28,82.456h435.747"/>
<path d="M258.786,349.681l-17.263-4.302l-8.562-20.659l9.16-15.237c2.36-3.926,1.742-8.953-1.496-12.192l-26.587-26.588
	c-3.238-3.238-8.266-3.855-12.192-1.495l-15.237,9.16l-20.66-8.563l-4.301-17.262c-1.107-4.444-5.099-7.563-9.679-7.563h-37.593
	c-4.58,0-8.571,3.119-9.679,7.563l-4.301,17.262l-20.66,8.563l-15.237-9.16c-3.928-2.36-8.954-1.743-12.192,1.495l-26.586,26.589
	c-3.238,3.238-3.855,8.266-1.496,12.192l9.16,15.237l-8.562,20.659l-17.262,4.302C3.119,350.787,0,354.779,0,359.359v37.593
	c0,4.58,3.119,8.571,7.563,9.678l17.262,4.302l8.562,20.66l-9.16,15.237c-2.36,3.926-1.742,8.953,1.496,12.192l26.588,26.587
	c3.239,3.238,8.266,3.855,12.191,1.495l15.238-9.159l20.66,8.562l4.301,17.262c1.107,4.444,5.099,7.563,9.679,7.563h37.593
	c4.58,0,8.57-3.119,9.679-7.563l4.301-17.262l20.66-8.562l15.238,9.159c3.925,2.362,8.952,1.742,12.191-1.495l26.588-26.587
	c3.238-3.239,3.856-8.266,1.496-12.192l-9.16-15.237l8.562-20.66l17.262-4.302c4.444-1.106,7.563-5.098,7.563-9.678v-37.593
	C266.348,354.779,263.229,350.787,258.786,349.681z M246.4,389.158l-14.578,3.632c-3.068,0.764-5.592,2.938-6.803,5.86
	l-12.412,29.95c-1.211,2.922-0.963,6.246,0.665,8.957l7.736,12.867l-15.565,15.565l-12.868-7.736
	c-2.711-1.629-6.034-1.877-8.956-0.665L153.668,470c-2.921,1.211-5.095,3.734-5.86,6.803l-3.631,14.577h-22.005l-3.631-14.577
	c-0.765-3.069-2.938-5.592-5.86-6.803l-29.95-12.411c-2.923-1.212-6.246-0.964-8.956,0.665l-12.868,7.736L45.34,450.425
	l7.736-12.867c1.63-2.712,1.876-6.035,0.665-8.957l-12.411-29.95c-1.211-2.921-3.735-5.095-6.803-5.86l-14.579-3.632v-22.005
	l14.578-3.632c3.068-0.765,5.592-2.938,6.803-5.86l12.411-29.949c1.211-2.922,0.963-6.246-0.665-8.956l-7.736-12.868l15.565-15.565
	l12.868,7.736c2.711,1.63,6.036,1.877,8.957,0.666l29.95-12.412c2.921-1.211,5.095-3.734,5.86-6.803l3.631-14.577h22.005
	l3.631,14.577c0.765,3.069,2.938,5.592,5.86,6.803l29.95,12.412c2.921,1.211,6.247,0.963,8.957-0.666l12.868-7.736l15.565,15.565
	l-7.736,12.868c-1.63,2.712-1.876,6.035-0.665,8.956l12.412,29.949c1.211,2.922,3.735,5.095,6.803,5.86l14.578,3.632L246.4,389.158
	L246.4,389.158z"/>
<path d="M134.506,333.124l0.57,0.021c0.143,0.006,0.284,0.009,0.426,0.009c5.315,0,9.732-4.194,9.958-9.555
	c0.231-5.505-4.042-10.153-9.546-10.384c-0.273-0.012-0.548-0.021-0.821-0.03c-5.529-0.18-10.101,4.171-10.263,9.677
	C124.668,328.367,128.999,332.961,134.506,333.124z"/>
<path d="M177.701,330.803c-4.012-3.775-10.325-3.581-14.098,0.432c-3.774,4.011-3.582,10.325,0.431,14.099
	c9.152,8.608,14.192,20.265,14.192,32.823c0,24.841-20.21,45.051-45.051,45.051s-45.051-20.21-45.051-45.051
	c0-12.873,5.528-25.162,15.167-33.714c4.12-3.656,4.497-9.96,0.842-14.08c-3.656-4.121-9.96-4.498-14.08-0.842
	c-13.903,12.335-21.877,30.062-21.877,48.635c0,35.841,29.158,64.998,64.998,64.998s64.998-29.157,64.998-64.998
	C198.173,360.3,190.71,343.042,177.701,330.803z"/>
<path d="M403.842,355.052l15.295-26.446c2.356-4.074,1.544-9.241-1.948-12.395l-9.6-8.671c0.098-1.432,0.146-2.866,0.146-4.298
	s-0.049-2.865-0.146-4.298l9.6-8.671c3.492-3.155,4.305-8.321,1.948-12.395l-15.295-26.446c-2.353-4.069-7.227-5.942-11.7-4.497
	l-12.285,3.97c-2.385-1.606-4.871-3.045-7.448-4.308l-2.706-12.633c-0.985-4.599-5.05-7.884-9.752-7.884h-30.547
	c-4.704,0-8.768,3.285-9.752,7.884l-2.706,12.634c-2.576,1.263-5.064,2.701-7.447,4.307l-12.285-3.97
	c-4.472-1.445-9.347,0.43-11.7,4.497l-15.295,26.446c-2.356,4.074-1.544,9.241,1.948,12.395l9.6,8.671
	c-0.098,1.432-0.146,2.866-0.146,4.298s0.049,2.865,0.146,4.298l-9.6,8.671c-3.492,3.155-4.304,8.321-1.948,12.395l15.295,26.446
	c2.353,4.067,7.228,5.943,11.7,4.497l12.285-3.97c2.385,1.606,4.871,3.044,7.447,4.307l2.706,12.634
	c0.985,4.599,5.05,7.884,9.752,7.884h30.547c4.704,0,8.768-3.285,9.752-7.884l2.706-12.634c2.576-1.263,5.064-2.701,7.448-4.307
	l12.285,3.97C396.615,360.995,401.489,359.119,403.842,355.052z M390.609,338.091l-9.484-3.065
	c-3.208-1.035-6.722-0.381-9.343,1.739c-3.519,2.85-7.434,5.114-11.634,6.728c-3.146,1.21-5.468,3.926-6.174,7.22l-2.087,9.743
	h-14.42l-2.087-9.743c-0.706-3.295-3.028-6.01-6.173-7.22c-4.201-1.615-8.116-3.88-11.635-6.728
	c-2.62-2.122-6.136-2.777-9.344-1.739l-9.484,3.064l-7.221-12.485l7.398-6.682c2.497-2.257,3.688-5.621,3.168-8.947
	c-0.347-2.216-0.524-4.481-0.524-6.733c0-2.252,0.177-4.517,0.524-6.735c0.521-3.325-0.67-6.688-3.168-8.946l-7.398-6.681
	l7.221-12.485l9.484,3.064c3.208,1.037,6.723,0.384,9.344-1.739c3.519-2.849,7.434-5.114,11.636-6.73
	c3.145-1.21,5.466-3.926,6.172-7.219l2.087-9.742h14.42l2.087,9.742c0.706,3.295,3.027,6.01,6.172,7.219
	c4.202,1.617,8.118,3.882,11.635,6.73c2.62,2.121,6.134,2.775,9.343,1.739l9.484-3.065l7.221,12.486l-7.398,6.681
	c-2.497,2.256-3.689,5.62-3.168,8.946c0.347,2.218,0.524,4.483,0.524,6.735c0,2.252-0.177,4.517-0.524,6.733
	c-0.521,3.326,0.67,6.689,3.168,8.947l7.398,6.682L390.609,338.091z"/>
<path d="M344.679,293.272c-2.633,0-5.196,1.057-7.051,2.922c-1.855,1.845-2.922,4.418-2.922,7.052c0,2.623,1.067,5.196,2.922,7.05
	c1.855,1.855,4.418,2.923,7.051,2.923c2.623,0,5.196-1.067,7.051-2.923c1.855-1.854,2.922-4.427,2.922-7.05
	c0-2.634-1.067-5.207-2.922-7.052C349.876,294.329,347.302,293.272,344.679,293.272z"/>
<path d="M112.688,190.572c1.855-1.854,2.922-4.418,2.922-7.05c0-2.623-1.067-5.196-2.922-7.043
	c-1.855-1.865-4.428-2.922-7.051-2.922c-2.623,0-5.196,1.057-7.051,2.922c-1.855,1.846-2.922,4.419-2.922,7.043
	c0,2.633,1.067,5.196,2.922,7.05c1.855,1.865,4.428,2.932,7.051,2.932C108.26,193.504,110.833,192.437,112.688,190.572z"/>
<path d="M369.942,193.499c5.509,0,9.974-4.466,9.974-9.974v-54.942c0-4.034-2.431-7.671-6.157-9.215
	c-3.725-1.54-8.016-0.69-10.869,2.162l-20.418,20.418l-20.418-20.418c-2.853-2.853-7.143-3.703-10.869-2.162
	c-3.727,1.544-6.157,5.18-6.157,9.215v54.942c0,5.508,4.465,9.974,9.974,9.974s9.974-4.466,9.974-9.974v-30.862l10.445,10.445
	c3.895,3.894,10.21,3.894,14.106,0l10.445-10.445v30.862C359.968,189.034,364.433,193.499,369.942,193.499z"/>
<path d="M293.642,156.51c0-20.898-17.002-37.901-37.901-37.901s-37.901,17.002-37.901,37.901s17.002,37.901,37.901,37.901
	S293.642,177.408,293.642,156.51z M237.789,156.51c0-9.899,8.054-17.953,17.953-17.953c9.899,0,17.953,8.054,17.953,17.953
	s-8.054,17.953-17.953,17.953C245.843,174.463,237.789,166.409,237.789,156.51z"/>
<path d="M191.266,143.816c3.895,3.894,10.21,3.894,14.105,0c3.895-3.895,3.895-10.21,0-14.106
	c-14.777-14.777-38.822-14.777-53.599,0c-14.777,14.777-14.777,38.822,0,53.599c7.39,7.389,17.093,11.082,26.8,11.082
	c9.705,0,19.412-3.694,26.8-11.082c3.895-3.895,3.896-10.21,0-14.106c-3.895-3.893-10.21-3.894-14.105,0c-7.001,7-18.391,7-25.389,0
	c-7.001-7-7.001-18.39,0-25.388C172.876,136.817,184.266,136.817,191.266,143.816z"/>
<path d="M452.534,36.576H245.512c-5.509,0-9.974,4.466-9.974,9.974s4.465,9.974,9.974,9.974h207.023
	c5.509,0,9.974-4.466,9.974-9.974S458.043,36.576,452.534,36.576z"/>
<path d="M137.333,36.576c-2.633,0-5.206,1.066-7.061,2.922c-1.855,1.855-2.922,4.428-2.922,7.051s1.067,5.196,2.922,7.05
	c1.865,1.855,4.428,2.923,7.061,2.923c2.623,0,5.196-1.067,7.051-2.923c1.855-1.854,2.912-4.427,2.912-7.05
	s-1.057-5.196-2.912-7.051C142.53,37.643,139.957,36.576,137.333,36.576z"/>
<path d="M100.68,36.576c-2.633,0-5.196,1.066-7.051,2.922c-1.865,1.855-2.922,4.428-2.922,7.051s1.057,5.196,2.922,7.05
	c1.855,1.855,4.428,2.923,7.051,2.923c2.623,0,5.196-1.067,7.051-2.923c1.855-1.854,2.922-4.427,2.922-7.05
	s-1.067-5.196-2.922-7.051C105.876,37.643,103.303,36.576,100.68,36.576z"/>
<path d="M173.977,36.576c-2.623,0-5.196,1.066-7.051,2.922c-1.855,1.855-2.922,4.428-2.922,7.051s1.067,5.196,2.922,7.05
	c1.855,1.855,4.428,2.923,7.051,2.923c2.633,0,5.196-1.067,7.051-2.923c1.865-1.854,2.922-4.427,2.922-7.05
	s-1.057-5.196-2.922-7.051C179.174,37.642,176.61,36.576,173.977,36.576z"/>
<path d="M470.11,0.67H83.126c-23.098,0-41.89,18.792-41.89,41.89v203.466c0,5.508,4.465,9.974,9.974,9.974s9.974-4.466,9.974-9.974
	V92.424c0.033,0,0.064,0.005,0.097,0.005h430.772v259.319c0,11.426-8.78,20.836-19.948,21.848v-50.466
	c0-5.508-4.465-9.974-9.974-9.974s-9.974,4.466-9.974,9.974v50.56h-41.654c-5.509,0-9.974,4.466-9.974,9.974
	c0,5.508,4.465,9.974,9.974,9.974h59.607c23.098,0,41.89-18.792,41.89-41.89V42.56C512,19.462,493.208,0.67,470.11,0.67z
	 M61.28,72.482c-0.033,0-0.064,0.005-0.097,0.005V42.56c0-12.099,9.843-21.942,21.942-21.942H470.11
	c12.099,0,21.942,9.843,21.942,21.942v29.921H61.28z"/>
<path d="M462.131,295.387c2.623,0,5.196-1.067,7.052-2.923c1.855-1.854,2.922-4.427,2.922-7.05c0-2.624-1.067-5.196-2.922-7.052
	c-1.855-1.855-4.418-2.922-7.052-2.922c-2.623,0-5.196,1.066-7.051,2.922c-1.855,1.855-2.922,4.427-2.922,7.052
	c0,2.623,1.067,5.196,2.922,7.05C456.935,294.319,459.508,295.387,462.131,295.387z"/>
<g>
</g>
<g>
</g>
<g>
</g>
<g>
</g>
<g>
</g>
<g>
</g>
<g>
</g>
<g>
</g>
<g>
</g>
<g>
</g>
<g>
</g>
<g>
</g>
<g>
</g>
<g>
</g>
<g>
</g>
</svg>
