<?xml version="1.0" encoding="iso-8859-1"?>
<!-- Generator: Adobe Illustrator 19.0.0, SVG Export Plug-In . SVG Version: 6.00 Build 0)  -->
<svg version="1.1" id="Capa_1" xmlns="http://www.w3.org/2000/svg" xmlns:xlink="http://www.w3.org/1999/xlink" x="0px" y="0px"
	 viewBox="0 0 512.141 512.141" style="enable-background:new 0 0 512.141 512.141;" xml:space="preserve">
<path style="fill:#D9EEF7;" d="M501.404,96v362.667c0,23.564-19.103,42.667-42.667,42.667H53.404
	c-23.564,0-42.667-19.103-42.667-42.667V96H501.404z"/>
<path style="fill:#FF7260;" d="M501.404,53.333V96H10.737V53.333c0-23.564,19.103-42.667,42.667-42.667h405.333
	C482.301,10.667,501.404,29.769,501.404,53.333z"/>
<g>
	<circle style="fill:#D9EEF7;" cx="362.737" cy="480" r="21.333"/>
	<circle style="fill:#D9EEF7;" cx="256.071" cy="480" r="21.333"/>
	<circle style="fill:#D9EEF7;" cx="149.404" cy="480" r="21.333"/>
</g>
<g>
	<path style="fill:#AAC4DA;" d="M362.737,437.333h-256C94.97,437.298,85.439,427.768,85.404,416v-85.333
		c0.035-11.767,9.566-21.298,21.333-21.333h298.667c11.768,0.035,21.298,9.566,21.333,21.333V416
		c-0.035,11.768-9.566,21.298-21.333,21.333H362.737z"/>
	<path style="fill:#AAC4DA;" d="M106.737,138.667h298.667c11.768,0.035,21.298,9.566,21.333,21.333v85.333
		c-0.035,11.767-9.566,21.298-21.333,21.333H106.737c-11.767-0.035-21.298-9.566-21.333-21.333V160
		C85.439,148.233,94.97,138.702,106.737,138.667z M298.737,224v-42.667H128.071V224H298.737z"/>
</g>
<g>
	<path style="fill:#F2F2F2;" d="M128.071,181.333h170.667V224H128.071V181.333z"/>
	<path style="fill:#F2F2F2;" d="M117.404,266.667h277.333v42.667H117.404V266.667z"/>
</g>
<g>
	<path style="fill:#4C5B66;" d="M458.737,0H53.404C23.963,0.035,0.106,23.893,0.071,53.333v405.333
		C0.106,488.107,23.963,511.965,53.404,512h42.667v-21.333H53.404c-17.673,0-32-14.327-32-32V53.333c0-17.673,14.327-32,32-32
		h405.333c17.673,0,32,14.327,32,32v405.333c0,17.673-14.327,32-32,32h-42.667V512h42.667c29.441-0.035,53.298-23.893,53.333-53.333
		V53.333C512.035,23.893,488.178,0.035,458.737,0z"/>
	<path style="fill:#4C5B66;" d="M42.737,85.333h426.667v21.333H42.737V85.333z"/>
	<path style="fill:#4C5B66;" d="M53.404,42.667h21.333V64H53.404V42.667z"/>
	<path style="fill:#4C5B66;" d="M96.071,42.667h21.333V64H96.071V42.667z"/>
	<path style="fill:#4C5B66;" d="M437.404,42.667h21.333V64h-21.333V42.667z"/>
	<path style="fill:#4C5B66;" d="M405.404,426.667V448c17.673,0,32-14.327,32-32v-85.333c0-17.673-14.327-32-32-32v-21.333
		c17.673,0,32-14.327,32-32V160c0-17.673-14.327-32-32-32H106.737c-17.673,0-32,14.327-32,32v85.333c0,17.673,14.327,32,32,32
		v21.333c-17.673,0-32,14.327-32,32V416c0,17.673,14.327,32,32,32v-21.333c-5.891,0-10.667-4.776-10.667-10.667v-85.333
		c0-5.891,4.776-10.667,10.667-10.667h298.667c5.891,0,10.667,4.776,10.667,10.667V416
		C416.071,421.891,411.295,426.667,405.404,426.667z M96.071,245.333V160c0-5.891,4.776-10.667,10.667-10.667h298.667
		c5.891,0,10.667,4.776,10.667,10.667v85.333c0,5.891-4.776,10.667-10.667,10.667H106.737
		C100.846,256,96.071,251.224,96.071,245.333z M128.071,277.333h256v21.333h-256V277.333z"/>
	<path style="fill:#4C5B66;" d="M160.071,449.963V416h85.333c11.538,0.244,21.089-8.911,21.333-20.449
		c0.006-0.295,0.006-0.589,0-0.884v-53.333h-21.333v53.333h-85.333c-11.538-0.244-21.089,8.911-21.333,20.449
		c-0.006,0.295-0.006,0.589,0,0.884v33.963c-16.662,5.891-25.394,24.174-19.503,40.837c5.891,16.662,24.174,25.394,40.837,19.503
		s25.394-24.174,19.503-40.837C176.352,460.353,169.184,453.185,160.071,449.963z M149.404,490.667
		c-5.891,0-10.667-4.776-10.667-10.667c0-5.891,4.776-10.667,10.667-10.667c5.891,0,10.667,4.776,10.667,10.667
		C160.071,485.891,155.295,490.667,149.404,490.667z"/>
	<path style="fill:#4C5B66;" d="M266.737,449.963v-23.296h-21.333v23.296c-16.662,5.891-25.394,24.174-19.503,40.837
		c5.891,16.662,24.174,25.394,40.837,19.503s25.394-24.174,19.503-40.837C283.019,460.353,275.85,453.185,266.737,449.963z
		 M256.071,490.667c-5.891,0-10.667-4.776-10.667-10.667c0-5.891,4.776-10.667,10.667-10.667c5.891,0,10.667,4.776,10.667,10.667
		C266.737,485.891,261.962,490.667,256.071,490.667z"/>
	<path style="fill:#4C5B66;" d="M373.404,449.963V416c0.244-11.538-8.911-21.089-20.449-21.333c-0.295-0.006-0.589-0.006-0.884,0
		h-64V416h64v33.963c-16.662,5.891-25.394,24.174-19.503,40.837c5.891,16.662,24.174,25.394,40.837,19.503
		s25.394-24.174,19.503-40.837C389.685,460.353,382.517,453.185,373.404,449.963z M362.737,490.667
		c-5.891,0-10.667-4.776-10.667-10.667c0-5.891,4.776-10.667,10.667-10.667s10.667,4.776,10.667,10.667
		C373.404,485.891,368.628,490.667,362.737,490.667z"/>
	<path style="fill:#4C5B66;" d="M128.071,234.667h170.667c5.891,0,10.667-4.776,10.667-10.667v-42.667
		c0-5.891-4.776-10.667-10.667-10.667H128.071c-5.891,0-10.667,4.776-10.667,10.667V224
		C117.404,229.891,122.18,234.667,128.071,234.667z M138.737,192h149.333v21.333H138.737V192z"/>
	<path style="fill:#4C5B66;" d="M330.737,170.667h21.333v64h-21.333V170.667z"/>
	<path style="fill:#4C5B66;" d="M373.404,170.667h21.333V192h-21.333V170.667z"/>
	<path style="fill:#4C5B66;" d="M373.404,213.333h21.333v21.333h-21.333V213.333z"/>
	<path style="fill:#4C5B66;" d="M117.404,341.333h106.667v21.333H117.404V341.333z"/>
	<path style="fill:#4C5B66;" d="M288.071,341.333h106.667v21.333H288.071V341.333z"/>
</g>
<g>
</g>
<g>
</g>
<g>
</g>
<g>
</g>
<g>
</g>
<g>
</g>
<g>
</g>
<g>
</g>
<g>
</g>
<g>
</g>
<g>
</g>
<g>
</g>
<g>
</g>
<g>
</g>
<g>
</g>
</svg>
